<svg xmlns="http://www.w3.org/2000/svg" width="464.763" height="243.912" viewBox="0 0 464.763 243.912">
  <g id="NETCAR_logo-Final" data-name="NETCAR logo-Final" transform="translate(-0.04 0.055)">
    <path id="Path_3412" data-name="Path 3412" d="M1784.559,776.54l4.221-20.993h-8.09l.323-1.407h17.813l-.281,1.407h-8.09l-4.221,20.993H1784.6Z" transform="translate(-1772.911 -538.915)" fill="#e84b4b"/>
    <path id="Path_3413" data-name="Path 3413" d="M1799.149,775.034a6.825,6.825,0,0,1-3.645-.886,4.418,4.418,0,0,1-1.941-2.5,7.766,7.766,0,0,1-.1-3.8l1.927-9.694h1.6l-1.927,9.694a5.29,5.29,0,0,0,.591,4.221,4.489,4.489,0,0,0,3.9,1.534,7.2,7.2,0,0,0,4.77-1.59,7.867,7.867,0,0,0,2.519-4.742l1.829-9.117h1.6l-3.321,16.757h-1.576l.971-4.854.422.422a7.777,7.777,0,0,1-3.165,3.461A9.037,9.037,0,0,1,1799.149,775.034Z" transform="translate(-1767.789 -537.283)" fill="#e84b4b"/>
    <path id="Path_3414" data-name="Path 3414" d="M1812.9,775.072a11.839,11.839,0,0,1-3.771-.591,7.151,7.151,0,0,1-2.814-1.52l.872-1.252a6.546,6.546,0,0,0,2.49,1.407,10.121,10.121,0,0,0,3.293.535,7.357,7.357,0,0,0,4.024-.928,2.884,2.884,0,0,0,1.407-2.533,1.969,1.969,0,0,0-.689-1.632,4.837,4.837,0,0,0-1.8-.83c-.732-.2-1.52-.38-2.35-.549a18.678,18.678,0,0,1-2.35-.647,4.1,4.1,0,0,1-1.8-1.182,3.294,3.294,0,0,1-.689-2.209,4.22,4.22,0,0,1,.873-2.687,5.628,5.628,0,0,1,2.434-1.773,9.964,9.964,0,0,1,3.686-.619,11.256,11.256,0,0,1,3.1.436,6.347,6.347,0,0,1,2.42,1.21l-.732,1.252a6.7,6.7,0,0,0-2.265-1.111,9.665,9.665,0,0,0-2.645-.366,6.811,6.811,0,0,0-3.884.971,2.94,2.94,0,0,0-1.407,2.533,2.04,2.04,0,0,0,.7,1.674,4.718,4.718,0,0,0,1.8.873q1.1.281,2.35.535a15.481,15.481,0,0,1,2.364.647,4.348,4.348,0,0,1,1.8,1.168,3.167,3.167,0,0,1,.689,2.181,4.222,4.222,0,0,1-.9,2.716,5.628,5.628,0,0,1-2.5,1.73,10.922,10.922,0,0,1-3.7.563Z" transform="translate(-1762.48 -537.321)" fill="#e84b4b"/>
    <path id="Path_3415" data-name="Path 3415" d="M1823.676,781.178l4.587-22.991h1.52l-1.055,5.234-.9,2.927-.225,3.081-2.378,11.748h-1.6Zm10.3-6.092a8.19,8.19,0,0,1-3.743-.788,5.316,5.316,0,0,1-2.364-2.279,7.783,7.783,0,0,1-.83-3.616,12.031,12.031,0,0,1,1.14-5.347,8.921,8.921,0,0,1,3.208-3.658,8.739,8.739,0,0,1,4.84-1.337,8.2,8.2,0,0,1,3.8.83,6.135,6.135,0,0,1,2.533,2.406,7.283,7.283,0,0,1,.915,3.729,11.075,11.075,0,0,1-.7,4.01,9.659,9.659,0,0,1-1.97,3.18,9.035,9.035,0,0,1-3,2.1,9.484,9.484,0,0,1-3.8.76Zm0-1.407a7.544,7.544,0,0,0,4.038-1.1,7.63,7.63,0,0,0,2.814-3.039,9.341,9.341,0,0,0,1.013-4.376,5.432,5.432,0,0,0-1.562-4.221,6.163,6.163,0,0,0-4.375-1.407,7.558,7.558,0,0,0-4.024,1.1,7.714,7.714,0,0,0-2.814,3.011,9.21,9.21,0,0,0-1.027,4.4,5.4,5.4,0,0,0,1.576,4.137,6.176,6.176,0,0,0,4.39,1.449Z" transform="translate(-1755.438 -537.321)" fill="#e84b4b"/>
    <path id="Path_3416" data-name="Path 3416" d="M1847,775.072a8.215,8.215,0,0,1-3.785-.83,5.982,5.982,0,0,1-2.533-2.406,7.391,7.391,0,0,1-.9-3.729,11.264,11.264,0,0,1,.69-4.01,9.3,9.3,0,0,1,1.97-3.18,9.171,9.171,0,0,1,3.011-2.1,9.387,9.387,0,0,1,3.785-.76,8.2,8.2,0,0,1,3.757.788,5.461,5.461,0,0,1,2.364,2.279,7.416,7.416,0,0,1,.816,3.616,11.732,11.732,0,0,1-1.111,5.332,8.6,8.6,0,0,1-8.062,4.995Zm.324-1.407a7.543,7.543,0,0,0,4.038-1.1,7.741,7.741,0,0,0,2.814-3.039,9.229,9.229,0,0,0,1.027-4.376,5.432,5.432,0,0,0-1.562-4.221,6.163,6.163,0,0,0-4.375-1.407,7.471,7.471,0,0,0-4.024,1.111,7.826,7.826,0,0,0-2.814,3.039,9.112,9.112,0,0,0-1.027,4.362,5.429,5.429,0,0,0,1.562,4.137,6.12,6.12,0,0,0,4.348,1.463Zm6.092,1.323,1.027-5.234.929-2.927.225-3.081,1.1-5.515h1.6l-3.335,16.757Z" transform="translate(-1748.862 -537.321)" fill="#e84b4b"/>
    <path id="Path_3417" data-name="Path 3417" d="M1855.35,774.946l3.334-16.757h1.576l-1.027,5.037-.2-.577a7.961,7.961,0,0,1,2.955-3.433,8.737,8.737,0,0,1,4.685-1.154l-.3,1.576h-.507a6.67,6.67,0,0,0-4.671,1.688,9.019,9.019,0,0,0-2.518,5.051l-1.731,8.6h-1.6Z" transform="translate(-1742.524 -537.322)" fill="#e84b4b"/>
    <path id="Path_3418" data-name="Path 3418" d="M1864.91,760.6l.253-1.407h10.046l-.253,1.407Zm4.657,15.477a4.389,4.389,0,0,1-2.322-.577,2.954,2.954,0,0,1-1.294-1.674,5.236,5.236,0,0,1,0-2.6l3.152-15.7h1.562l-3.11,15.576a3.6,3.6,0,0,0,.239,2.687,2.42,2.42,0,0,0,2.2.915,4.365,4.365,0,0,0,2.673-.929l.479,1.182a4.714,4.714,0,0,1-1.717.872,7.172,7.172,0,0,1-1.857.281Z" transform="translate(-1738.633 -538.354)" fill="#e84b4b"/>
    <path id="Path_3419" data-name="Path 3419" d="M1880.791,775.072a9.16,9.16,0,0,1-4.08-.844,6.094,6.094,0,0,1-2.646-2.42,7.359,7.359,0,0,1-.914-3.757,10.633,10.633,0,0,1,1.21-5.107,9.4,9.4,0,0,1,3.278-3.56,8.526,8.526,0,0,1,4.672-1.323,7.98,7.98,0,0,1,3.784.83,6.007,6.007,0,0,1,2.463,2.392,7.543,7.543,0,0,1,.886,3.771,7.03,7.03,0,0,1,0,.957,5.815,5.815,0,0,1-.127.9h-14.97l.225-1.252h13.845l-.633.549a6.685,6.685,0,0,0-.3-3.7,4.7,4.7,0,0,0-2.012-2.279,6.414,6.414,0,0,0-3.264-.788,7.036,7.036,0,0,0-3.9,1.112,7.528,7.528,0,0,0-2.561,3.053,9.662,9.662,0,0,0-.971,4.418,5.43,5.43,0,0,0,1.576,4.221,6.558,6.558,0,0,0,4.629,1.407,8.835,8.835,0,0,0,3.292-.591,6.5,6.5,0,0,0,2.462-1.66l.746,1.126a7.532,7.532,0,0,1-2.814,1.885,10.172,10.172,0,0,1-3.883.661Z" transform="translate(-1735.28 -537.321)" fill="#e84b4b"/>
    <path id="Path_3420" data-name="Path 3420" d="M1892.145,775.072a11.837,11.837,0,0,1-3.771-.591,7.145,7.145,0,0,1-2.814-1.52l.872-1.252a6.544,6.544,0,0,0,2.49,1.407,10.118,10.118,0,0,0,3.292.535,7.357,7.357,0,0,0,4.024-.928,2.885,2.885,0,0,0,1.407-2.533,1.97,1.97,0,0,0-.689-1.632,4.841,4.841,0,0,0-1.8-.83c-.732-.2-1.52-.38-2.35-.549a18.741,18.741,0,0,1-2.35-.647,4.092,4.092,0,0,1-1.8-1.182,3.292,3.292,0,0,1-.69-2.209,4.224,4.224,0,0,1,.873-2.687,5.63,5.63,0,0,1,2.434-1.773,9.957,9.957,0,0,1,3.686-.619,11.254,11.254,0,0,1,3.1.436,6.345,6.345,0,0,1,2.42,1.21l-.731,1.252a6.706,6.706,0,0,0-2.265-1.112,9.663,9.663,0,0,0-2.645-.366,6.807,6.807,0,0,0-3.883.971,2.941,2.941,0,0,0-1.407,2.532,2.04,2.04,0,0,0,.7,1.674,4.71,4.71,0,0,0,1.8.872q1.1.281,2.349.535a15.508,15.508,0,0,1,2.364.647,4.347,4.347,0,0,1,1.8,1.168,3.165,3.165,0,0,1,.69,2.181,4.224,4.224,0,0,1-.9,2.716,5.63,5.63,0,0,1-2.5,1.731,10.926,10.926,0,0,1-3.7.563Z" transform="translate(-1730.228 -537.321)" fill="#e84b4b"/>
    <path id="Path_3421" data-name="Path 3421" d="M1898.289,770.94a1.279,1.279,0,0,1-.915-.38,1.237,1.237,0,0,1-.394-.928,1.322,1.322,0,0,1,.437-1.013,1.406,1.406,0,0,1,.971-.408,1.31,1.31,0,0,1,.929.366,1.252,1.252,0,0,1,.38.943,1.427,1.427,0,0,1-1.407,1.421Zm6.585,0a1.28,1.28,0,0,1-.915-.38,1.237,1.237,0,0,1-.394-.928,1.323,1.323,0,0,1,.437-1.013,1.406,1.406,0,0,1,.971-.408,1.294,1.294,0,0,1,.929.366,1.253,1.253,0,0,1,.38.943,1.447,1.447,0,0,1-1.421,1.421Zm6.585,0a1.28,1.28,0,0,1-.915-.38,1.238,1.238,0,0,1-.394-.928,1.324,1.324,0,0,1,.437-1.013,1.406,1.406,0,0,1,.971-.408,1.3,1.3,0,0,1,.929.366,1.252,1.252,0,0,1,.38.943,1.447,1.447,0,0,1-1.421,1.421Z" transform="translate(-1725.58 -533.189)" fill="#e84b4b"/>
    <path id="Path_3422" data-name="Path 3422" d="M1918.851,775.072a9.161,9.161,0,0,1-4.081-.844,6.092,6.092,0,0,1-2.645-2.42,7.356,7.356,0,0,1-.914-3.757,10.636,10.636,0,0,1,1.21-5.107,9.4,9.4,0,0,1,3.278-3.56,8.526,8.526,0,0,1,4.671-1.322,7.975,7.975,0,0,1,3.785.83,6.008,6.008,0,0,1,2.463,2.392,7.545,7.545,0,0,1,.886,3.771,6.989,6.989,0,0,1,0,.957,5.785,5.785,0,0,1-.127.9h-14.858l.225-1.252h13.873l-.633.549a6.685,6.685,0,0,0-.3-3.7,4.7,4.7,0,0,0-2.012-2.279,6.416,6.416,0,0,0-3.265-.788,7.036,7.036,0,0,0-3.9,1.112,7.529,7.529,0,0,0-2.786,3.053,9.665,9.665,0,0,0-.971,4.418,5.431,5.431,0,0,0,1.576,4.221,6.555,6.555,0,0,0,4.629,1.407,8.833,8.833,0,0,0,3.292-.591,6.5,6.5,0,0,0,2.462-1.66l.746,1.126a7.529,7.529,0,0,1-2.814,1.885,10.169,10.169,0,0,1-3.8.661Z" transform="translate(-1719.789 -537.321)" fill="#e84b4b"/>
    <path id="Path_3423" data-name="Path 3423" d="M1936.256,758.062a7.036,7.036,0,0,1,3.7.886,4.516,4.516,0,0,1,1.956,2.5,7.389,7.389,0,0,1,.084,3.8l-1.927,9.694h-1.6l1.927-9.694a5.134,5.134,0,0,0-.591-4.221,4.615,4.615,0,0,0-3.968-1.548,7.275,7.275,0,0,0-4.784,1.59,7.966,7.966,0,0,0-2.575,4.742l-1.829,9.117H1925l3.335-16.757h1.576l-.957,4.854-.422-.422a7.74,7.74,0,0,1,3.18-3.461,9.2,9.2,0,0,1,4.545-1.084Z" transform="translate(-1714.176 -537.321)" fill="#e84b4b"/>
    <path id="Path_3424" data-name="Path 3424" d="M1946.48,760.6l.253-1.407h10.046l-.253,1.407Zm4.657,15.477a4.392,4.392,0,0,1-2.322-.577,2.955,2.955,0,0,1-1.294-1.674,5.236,5.236,0,0,1,0-2.6l3.152-15.7h1.6l-3.109,15.576a3.6,3.6,0,0,0,.239,2.687,2.42,2.42,0,0,0,2.2.915,4.368,4.368,0,0,0,2.673-.929l.478,1.182a4.707,4.707,0,0,1-1.716.872,7.172,7.172,0,0,1-1.9.281Z" transform="translate(-1705.433 -538.354)" fill="#e84b4b"/>
    <path id="Path_3425" data-name="Path 3425" d="M1962.146,775.068a8.528,8.528,0,0,1-3.911-.844,6.163,6.163,0,0,1-2.589-2.42,7.23,7.23,0,0,1-.915-3.686,10.582,10.582,0,0,1,1.238-5.15,9.259,9.259,0,0,1,8.358-4.9,8.443,8.443,0,0,1,3.926.844,6.2,6.2,0,0,1,2.574,2.406,7.189,7.189,0,0,1,.915,3.714,10.581,10.581,0,0,1-1.238,5.15,9.244,9.244,0,0,1-8.358,4.882Zm.127-1.407a7.542,7.542,0,0,0,4.038-1.1,7.739,7.739,0,0,0,2.814-3.039,9.23,9.23,0,0,0,1.027-4.376,5.432,5.432,0,0,0-1.562-4.221,6.162,6.162,0,0,0-4.376-1.407,7.47,7.47,0,0,0-4.024,1.111,7.82,7.82,0,0,0-2.814,3.039,9.118,9.118,0,0,0-1.027,4.362,5.43,5.43,0,0,0,1.562,4.136,6.12,6.12,0,0,0,4.347,1.464Z" transform="translate(-1702.076 -537.317)" fill="#e84b4b"/>
    <path id="Path_3426" data-name="Path 3426" d="M1976.089,777.065a8.218,8.218,0,0,1-3.784-.83,5.979,5.979,0,0,1-2.533-2.406,7.39,7.39,0,0,1-.9-3.728,11.259,11.259,0,0,1,.69-4.01,9.3,9.3,0,0,1,1.97-3.18,9.17,9.17,0,0,1,3.011-2.1,9.387,9.387,0,0,1,3.785-.76,8.2,8.2,0,0,1,3.757.788,5.46,5.46,0,0,1,2.364,2.279,7.418,7.418,0,0,1,.815,3.616,12.807,12.807,0,0,1-.647,4.137,9.482,9.482,0,0,1-1.857,3.278,8.61,8.61,0,0,1-2.9,2.153,8.963,8.963,0,0,1-3.771.76Zm.324-1.407a7.541,7.541,0,0,0,4.038-1.1,7.737,7.737,0,0,0,2.814-3.039,9.23,9.23,0,0,0,1.027-4.376,5.433,5.433,0,0,0-1.562-4.221,6.163,6.163,0,0,0-4.375-1.407,7.472,7.472,0,0,0-4.024,1.111,7.824,7.824,0,0,0-2.814,3.039,9.124,9.124,0,0,0-1.027,4.362,5.431,5.431,0,0,0,1.562,4.137,6.12,6.12,0,0,0,4.348,1.463Zm6.092,1.323,1.027-5.234.9-2.927.253-3.081,2.5-12.579h1.562L1984,776.981h-1.548Z" transform="translate(-1696.321 -539.314)" fill="#e84b4b"/>
    <path id="Path_3427" data-name="Path 3427" d="M1991.489,775.072a8.215,8.215,0,0,1-3.785-.83,5.98,5.98,0,0,1-2.533-2.406,7.383,7.383,0,0,1-.9-3.728,11.248,11.248,0,0,1,.689-4.01,9.3,9.3,0,0,1,1.97-3.18,9.174,9.174,0,0,1,3.011-2.1,9.385,9.385,0,0,1,3.785-.76,8.2,8.2,0,0,1,3.757.788,5.459,5.459,0,0,1,2.364,2.279,7.411,7.411,0,0,1,.816,3.616,11.739,11.739,0,0,1-1.111,5.333,8.6,8.6,0,0,1-8.062,4.995Zm.323-1.407a7.54,7.54,0,0,0,4.038-1.1,7.733,7.733,0,0,0,2.814-3.039,9.221,9.221,0,0,0,1.027-4.376,5.431,5.431,0,0,0-1.562-4.221,6.164,6.164,0,0,0-4.376-1.407,7.469,7.469,0,0,0-4.024,1.111,7.824,7.824,0,0,0-2.814,3.039,9.115,9.115,0,0,0-1.028,4.362,5.429,5.429,0,0,0,1.562,4.137,6.12,6.12,0,0,0,4.362,1.463Zm6.092,1.323,1.027-5.234.929-2.927.225-3.081,1.1-5.515h1.6l-3.335,16.757h-1.491Z" transform="translate(-1690.053 -537.321)" fill="#e84b4b"/>
    <path id="Path_3428" data-name="Path 3428" d="M2005.015,775.072a11.838,11.838,0,0,1-3.771-.591,7.147,7.147,0,0,1-2.814-1.52l.872-1.252a6.542,6.542,0,0,0,2.49,1.407,10.12,10.12,0,0,0,3.292.535,7.357,7.357,0,0,0,4.024-.928,2.884,2.884,0,0,0,1.407-2.533,1.97,1.97,0,0,0-.69-1.632,4.837,4.837,0,0,0-1.8-.83c-.732-.2-1.52-.38-2.35-.549a18.644,18.644,0,0,1-2.35-.647,4.094,4.094,0,0,1-1.8-1.182,3.292,3.292,0,0,1-.689-2.209,4.222,4.222,0,0,1,.872-2.687,5.629,5.629,0,0,1,2.434-1.773,9.96,9.96,0,0,1,3.687-.619,11.254,11.254,0,0,1,3.1.436,6.348,6.348,0,0,1,2.42,1.21l-.732,1.252a6.7,6.7,0,0,0-2.265-1.112,9.665,9.665,0,0,0-2.645-.366,6.809,6.809,0,0,0-3.884.971,2.941,2.941,0,0,0-1.407,2.532,2.04,2.04,0,0,0,.7,1.674,4.72,4.72,0,0,0,1.8.872q1.1.281,2.35.535a15.49,15.49,0,0,1,2.364.647,4.347,4.347,0,0,1,1.8,1.168,3.167,3.167,0,0,1,.689,2.181,4.221,4.221,0,0,1-.9,2.716,5.63,5.63,0,0,1-2.5,1.731,10.925,10.925,0,0,1-3.7.563Z" transform="translate(-1684.289 -537.321)" fill="#e84b4b"/>
    <path id="Path_3429" data-name="Path 3429" d="M2015.72,781.178l4.587-22.991h1.576l-1.055,5.234-.9,2.927-.225,3.081-2.378,11.748h-1.6Zm10.3-6.092a8.189,8.189,0,0,1-3.743-.788,5.316,5.316,0,0,1-2.363-2.279,7.78,7.78,0,0,1-.831-3.616,12.03,12.03,0,0,1,1.14-5.347,8.918,8.918,0,0,1,3.208-3.658,8.738,8.738,0,0,1,4.84-1.337,8.2,8.2,0,0,1,3.8.83,6.131,6.131,0,0,1,2.532,2.406,7.286,7.286,0,0,1,.915,3.729,11.065,11.065,0,0,1-.7,4.01,9.663,9.663,0,0,1-1.97,3.18,9.035,9.035,0,0,1-3,2.1,9.483,9.483,0,0,1-3.883.76Zm0-1.407a7.544,7.544,0,0,0,4.038-1.1,7.623,7.623,0,0,0,2.814-3.039,9.346,9.346,0,0,0,1.013-4.376,5.432,5.432,0,0,0-1.562-4.221,6.164,6.164,0,0,0-4.376-1.407,7.556,7.556,0,0,0-4.024,1.1,7.708,7.708,0,0,0-2.814,3.011,9.2,9.2,0,0,0-1.027,4.4,5.4,5.4,0,0,0,1.576,4.137,6.178,6.178,0,0,0,4.4,1.449Z" transform="translate(-1677.252 -537.321)" fill="#e84b4b"/>
    <path id="Path_3430" data-name="Path 3430" d="M2039.089,775.072a8.219,8.219,0,0,1-3.785-.83,5.981,5.981,0,0,1-2.533-2.406,7.388,7.388,0,0,1-.9-3.729,11.253,11.253,0,0,1,.689-4.01,9.3,9.3,0,0,1,1.97-3.18,9.18,9.18,0,0,1,3.011-2.1,9.383,9.383,0,0,1,3.785-.76,8.2,8.2,0,0,1,3.757.788,5.458,5.458,0,0,1,2.364,2.279,7.412,7.412,0,0,1,.816,3.616,11.735,11.735,0,0,1-1.112,5.332,8.6,8.6,0,0,1-8.062,4.995Zm.323-1.407a7.543,7.543,0,0,0,4.038-1.1,7.739,7.739,0,0,0,2.814-3.039,9.229,9.229,0,0,0,1.027-4.376,5.432,5.432,0,0,0-1.562-4.221,6.163,6.163,0,0,0-4.376-1.407,7.47,7.47,0,0,0-4.024,1.112,7.823,7.823,0,0,0-2.814,3.039,9.116,9.116,0,0,0-1.028,4.362,5.432,5.432,0,0,0,1.562,4.137,6.12,6.12,0,0,0,4.32,1.463Zm6.092,1.323,1.027-5.234.929-2.927.225-3.081,1.1-5.515h1.562l-3.335,16.757h-1.548Z" transform="translate(-1670.679 -537.321)" fill="#e84b4b"/>
    <path id="Path_3431" data-name="Path 3431" d="M2047.42,774.946l3.335-16.757h1.576l-1.027,5.037-.2-.577a7.966,7.966,0,0,1,2.955-3.433,8.735,8.735,0,0,1,4.686-1.154l-.3,1.576h-.506a6.67,6.67,0,0,0-4.671,1.688,9.018,9.018,0,0,0-2.519,5.051l-1.731,8.6h-1.6Z" transform="translate(-1664.349 -537.322)" fill="#e84b4b"/>
    <path id="Path_3432" data-name="Path 3432" d="M2057,760.6l.253-1.407H2067.3l-.253,1.407Zm4.657,15.477a4.389,4.389,0,0,1-2.321-.577,2.952,2.952,0,0,1-1.294-1.674,5.233,5.233,0,0,1,0-2.6l3.152-15.7h1.435l-3.109,15.576a3.6,3.6,0,0,0,.239,2.687,2.419,2.419,0,0,0,2.195.915,4.386,4.386,0,0,0,1.406-.239,4.439,4.439,0,0,0,1.267-.689l.478,1.182a4.707,4.707,0,0,1-1.716.872,7.174,7.174,0,0,1-1.759.281Z" transform="translate(-1660.45 -538.354)" fill="#e84b4b"/>
    <path id="Path_3433" data-name="Path 3433" d="M2072.85,775.072a9.164,9.164,0,0,1-4.08-.844,6.091,6.091,0,0,1-2.645-2.42,7.351,7.351,0,0,1-.914-3.757,10.628,10.628,0,0,1,1.209-5.107,9.4,9.4,0,0,1,3.278-3.56,8.529,8.529,0,0,1,4.671-1.322,7.976,7.976,0,0,1,3.785.83,6,6,0,0,1,2.462,2.392,7.54,7.54,0,0,1,.886,3.771,7.03,7.03,0,0,1,0,.957,5.814,5.814,0,0,1-.127.9H2066.52l.225-1.252h13.874l-.633.549a6.685,6.685,0,0,0-.3-3.7,4.7,4.7,0,0,0-2.012-2.279,6.416,6.416,0,0,0-3.265-.788,7.037,7.037,0,0,0-3.9,1.112,7.527,7.527,0,0,0-2.786,3.053,9.662,9.662,0,0,0-.971,4.418,5.431,5.431,0,0,0,1.576,4.221,6.556,6.556,0,0,0,4.629,1.407,8.833,8.833,0,0,0,3.292-.591,6.5,6.5,0,0,0,2.463-1.66l.746,1.126a7.533,7.533,0,0,1-2.814,1.885A10.17,10.17,0,0,1,2072.85,775.072Z" transform="translate(-1657.11 -537.321)" fill="#e84b4b"/>
    <path id="Path_3434" data-name="Path 3434" d="M2084.2,775.072a11.844,11.844,0,0,1-3.771-.591,7.148,7.148,0,0,1-2.814-1.52l.872-1.252a6.545,6.545,0,0,0,2.49,1.407,10.123,10.123,0,0,0,3.293.535,7.356,7.356,0,0,0,4.024-.928,2.884,2.884,0,0,0,1.407-2.533,1.969,1.969,0,0,0-.689-1.632,4.831,4.831,0,0,0-1.8-.83c-.731-.2-1.52-.38-2.349-.549a18.669,18.669,0,0,1-2.349-.647,4.093,4.093,0,0,1-1.8-1.182,3.29,3.29,0,0,1-.689-2.209,4.222,4.222,0,0,1,.872-2.687,5.628,5.628,0,0,1,2.434-1.773,9.962,9.962,0,0,1,3.687-.619,11.254,11.254,0,0,1,3.095.436,6.346,6.346,0,0,1,2.42,1.21l-.732,1.252a6.7,6.7,0,0,0-2.265-1.111,9.668,9.668,0,0,0-2.646-.366,6.809,6.809,0,0,0-3.883.971,2.94,2.94,0,0,0-1.407,2.532,2.041,2.041,0,0,0,.7,1.674,4.707,4.707,0,0,0,1.8.873q1.1.281,2.35.534a15.518,15.518,0,0,1,2.364.647,4.349,4.349,0,0,1,1.8,1.168,3.166,3.166,0,0,1,.689,2.181,4.22,4.22,0,0,1-.9,2.716,5.63,5.63,0,0,1-2.5,1.731,10.924,10.924,0,0,1-3.7.563Z" transform="translate(-1652.058 -537.321)" fill="#e84b4b"/>
    <path id="Path_3435" data-name="Path 3435" d="M2090.93,776.687a1.223,1.223,0,0,1-.9-.38,1.194,1.194,0,0,1-.38-.872,1.407,1.407,0,0,1,1.407-1.407,1.279,1.279,0,0,1,.942.366,1.212,1.212,0,0,1,.366.886,1.44,1.44,0,0,1-1.435,1.407Zm.479-6.585,2.884-16.012h1.857l-3.532,16.012h-1.224Z" transform="translate(-1647.161 -538.936)" fill="#e84b4b"/>
    <path id="Path_3436" data-name="Path 3436" d="M2096.68,776.687a1.224,1.224,0,0,1-.9-.38,1.2,1.2,0,0,1-.38-.872,1.407,1.407,0,0,1,1.407-1.407,1.28,1.28,0,0,1,.943.366,1.21,1.21,0,0,1,.365.886,1.44,1.44,0,0,1-1.435,1.407Zm.479-6.585,2.884-16.012h1.829l-3.531,16.012h-1.225Z" transform="translate(-1644.821 -538.936)" fill="#e84b4b"/>
    <path id="Path_3437" data-name="Path 3437" d="M1785.925,696l34.922,46.839V696h10.806v65.173h-10.806l-34.669-46.755v46.741H1775.19V696H1786Z" transform="translate(-1775.15 -562.579)" fill="#e84b4b"/>
    <path id="Path_3438" data-name="Path 3438" d="M1887.348,696v9.849h-35.569v17.6h31.841V733.3h-31.841v18h36.681v9.849h-47.67V696h46.558Z" transform="translate(-1748.45 -562.579)" fill="#e84b4b"/>
    <path id="Path_3439" data-name="Path 3439" d="M1944.168,696v9.849H1923.5v55.31h-10.989v-55.31H1891.94V696h52.243Z" transform="translate(-1727.631 -562.579)" fill="#e84b4b"/>
    <path id="Path_3440" data-name="Path 3440" d="M1976.8,705.565a22.955,22.955,0,1,0,0,45.911,26.944,26.944,0,0,0,18.165-7.724l6.514,7.26a37,37,0,0,1-25.228,10.707c-19.093,0-33.895-14.436-33.895-33.149s14.985-32.769,34.26-32.769a35.977,35.977,0,0,1,24.763,10.06l-6.43,8.006a25.453,25.453,0,0,0-18.151-8.3Z" transform="translate(-1707.11 -562.66)" fill="#e84b4b"/>
    <path id="Path_3441" data-name="Path 3441" d="M2049.754,746.455h-32.868l-6.233,14.717H1999.2L2027.973,696h11.256l28.492,65.173h-11.735Zm-4.221-9.779-12.3-28.956-12.3,28.956h24.581Z" transform="translate(-1683.975 -562.579)" fill="#e84b4b"/>
    <path id="Path_3442" data-name="Path 3442" d="M2108.636,761.173l-11.917-19.7a29.2,29.2,0,0,1-2.983.1h-15.478v19.7H2067.27V696h26.438c16.673,0,26.254,8.1,26.254,22.259,0,10.426-4.84,17.785-13.507,21.105l14.619,21.795h-12.48Zm-14.9-29.547c10.06,0,15.829-4.221,15.829-13.127,0-8.569-5.769-12.663-15.829-12.663h-15.478v25.791Z" transform="translate(-1656.271 -562.579)" fill="#e84b4b"/>
    <path id="Path_3443" data-name="Path 3443" d="M2069.4,675.5c-16.687.408-33.374.605-50.047.76l-50.047.225-50.047-.225-25.031-.281-25.031-.492,25.031-.492,25.031-.281,50.047-.225,50.047.225C2036.029,674.9,2052.716,675.095,2069.4,675.5Z" transform="translate(-1736.887 -571.334)" fill="#e84b4b"/>
    <path id="Path_3444" data-name="Path 3444" d="M2055.616,672.52h-22.048a24.158,24.158,0,0,1-24.046-21.935v-5.628a24.159,24.159,0,0,1,24.173-24.172h22.048a9.849,9.849,0,1,0,0-19.6H2033.7a43.772,43.772,0,0,0-43.772,43.772v20.43a7.894,7.894,0,0,1-13.465,5.628l-45.8-45.8a34.12,34.12,0,0,0-34.612-8.7c-14.928,4.6-24.693,19.009-24.693,34.641V683.2a9.849,9.849,0,1,0,19.6,0V650.556a15.885,15.885,0,0,1,10.032-15.069,14.689,14.689,0,0,1,15.787,3.546l45.8,45.8a27.112,27.112,0,0,0,19.261,8.118,27.578,27.578,0,0,0,8.667-1.407,27.027,27.027,0,0,0,13.916-10.651,43.363,43.363,0,0,0,29.139,11.256H2055.6a9.849,9.849,0,0,0,.014-19.628Z" transform="translate(-1736.03 -601.19)" fill="#e84b4b"/>
  </g>
</svg>
